<svg width="369" height="94" viewBox="0 0 369 94" fill="none" xmlns="http://www.w3.org/2000/svg">
<path d="M15.1037 92.1602C10.4957 92.1602 7.12501 91.9896 4.99168 91.6482C2.85835 91.3069 1.49301 90.9229 0.89568 90.4962C0.298347 89.9842 -0.000319958 89.5576 -0.000319958 89.2162C-0.000319958 88.4482 0.51168 87.8509 1.53568 87.4242C2.55968 86.9976 4.39435 86.7842 7.03968 86.7842V11.0082C5.84501 10.7522 4.69301 10.0269 3.58368 8.83223C2.47435 7.55223 1.91968 6.44289 1.91968 5.50423C1.91968 4.73623 2.21835 4.22423 2.81568 3.96822C4.09568 3.45623 5.88768 2.98689 8.19168 2.56023C10.581 2.04823 13.1837 1.62156 15.9997 1.28023C18.901 0.853561 21.7597 0.554893 24.5757 0.384224C27.477 0.128227 30.037 0.000228882 32.2557 0.000228882C38.6557 0.000228882 44.6717 1.06689 50.3037 3.20023C56.021 5.33356 61.0557 8.40556 65.4077 12.4162C69.845 16.3416 73.301 21.1202 75.7757 26.7522C78.3357 32.2989 79.6157 38.5282 79.6157 45.4402C79.6157 52.3522 78.5064 58.4536 76.2877 63.7442C74.069 68.9496 71.125 73.3869 67.4557 77.0562C63.7863 80.6402 59.6903 83.4989 55.1677 85.6322C50.645 87.7656 46.037 89.2589 41.3437 90.1122C36.9917 90.8802 32.8103 91.3922 28.7997 91.6482C24.789 91.9042 20.821 92.0749 16.8957 92.1602H15.1037ZM15.9997 86.0162C28.5437 85.7602 38.8263 83.8402 46.8477 80.2562C54.9543 76.6722 60.9277 71.8509 64.7677 65.7922C68.6077 59.7336 70.5277 52.9069 70.5277 45.3122C70.5277 39.3389 69.3757 34.0482 67.0717 29.4402C64.853 24.7469 61.8663 20.8216 58.1117 17.6642C54.357 14.4216 50.1757 11.9896 45.5677 10.3682C40.9597 8.66156 36.309 7.80823 31.6157 7.80823C26.1543 7.80823 20.949 8.49089 15.9997 9.85622V86.0162ZM100.165 12.2882H100.037C99.1833 12.2882 98.2873 11.9042 97.3487 11.1362C96.4953 10.2829 95.7273 9.34423 95.0447 8.32023C94.4473 7.21089 94.1487 6.31489 94.1487 5.63223C94.1487 4.86422 94.49 4.43756 95.1727 4.35223C96.8793 4.01089 98.842 3.71222 101.061 3.45622C103.279 3.20023 106.138 2.68823 109.637 1.92023C111.514 1.49356 114.074 1.15223 117.317 0.896225C120.645 0.554891 124.442 0.384224 128.709 0.384224C135.706 0.384224 141.295 1.45089 145.477 3.58423C149.658 5.71756 152.687 8.44823 154.565 11.7762C156.527 15.0189 157.509 18.3896 157.509 21.8882C157.509 26.4962 156.271 30.5069 153.797 33.9202C151.407 37.3336 148.293 40.1069 144.453 42.2402C140.698 44.3736 136.773 45.8242 132.677 46.5922C131.567 46.8482 130.287 47.0616 128.837 47.2322C127.386 47.3176 125.893 47.4456 124.357 47.6162C123.93 47.6162 123.461 47.6589 122.949 47.7442C122.437 47.7442 121.925 47.7442 121.413 47.7442C124.058 50.3896 127.173 53.7602 130.757 57.8562C134.426 61.8669 138.223 65.9629 142.149 70.1442C146.074 74.3256 149.829 77.9949 153.413 81.1522C154.863 82.5176 156.527 83.8829 158.405 85.2482C160.282 86.6136 161.818 87.5096 163.013 87.9362C164.463 88.5336 165.743 89.1736 166.853 89.8562C167.962 90.5389 168.517 91.1362 168.517 91.6482C168.517 92.4162 167.279 92.8002 164.805 92.8002C162.415 92.8002 159.898 92.5016 157.253 91.9042C154.607 91.3069 151.962 89.9416 149.317 87.8082C146.415 85.5042 143.386 82.7736 140.229 79.6162C137.157 76.3736 134.085 73.0456 131.013 69.6322C127.941 66.1336 125.039 62.8482 122.309 59.7762C119.578 56.7042 117.189 54.1869 115.141 52.2242C114.287 51.4562 113.221 50.6882 111.941 49.9202C110.746 49.1522 109.722 48.5976 108.869 48.2562V76.4162C108.869 79.3176 108.911 82.1762 108.997 84.9922C109.167 87.7229 109.253 89.8136 109.253 91.2642C109.253 91.6909 108.997 91.9896 108.485 92.1602C107.973 92.4162 107.375 92.5442 106.693 92.5442C105.327 92.5442 103.834 92.2029 102.213 91.5202C100.677 90.9229 99.9087 90.0696 99.9087 88.9602C99.9087 87.9362 99.9513 86.1869 100.037 83.7122C100.122 81.2376 100.165 78.7629 100.165 76.2882V12.2882ZM114.885 41.4722C117.359 41.4722 119.749 41.3442 122.053 41.0882C124.442 40.8322 126.703 40.5336 128.837 40.1922C132.335 39.5949 135.578 38.4002 138.565 36.6082C141.551 34.7309 143.941 32.5549 145.733 30.0802C147.61 27.5202 148.549 24.9602 148.549 22.4002C148.549 18.1336 146.757 14.6776 143.173 12.0322C139.589 9.38689 134.682 8.06422 128.453 8.06422C125.039 8.06422 121.583 8.23489 118.085 8.57623C114.671 8.91756 111.599 9.55756 108.869 10.4962V43.7762C109.381 43.0936 109.893 42.5389 110.405 42.1122C111.002 41.6856 111.642 41.4722 112.325 41.4722H114.885ZM191.399 62.3362H190.887C189.521 65.2376 188.156 68.0536 186.791 70.7842C185.425 73.5149 184.145 76.0749 182.951 78.4642C182.268 79.8296 181.415 81.7069 180.391 84.0962C179.452 86.4856 178.727 88.4056 178.215 89.8562C177.959 90.5389 177.233 91.0509 176.039 91.3922C174.929 91.8189 173.735 92.0322 172.455 92.0322C171.26 92.0322 170.151 91.8189 169.127 91.3922C168.188 91.0509 167.719 90.4536 167.719 89.6002C167.719 89.0882 167.889 88.6189 168.231 88.1922C168.572 87.6802 168.913 87.1256 169.255 86.5282C169.596 85.8456 170.151 84.7362 170.919 83.2002C171.772 81.6642 173.009 79.3602 174.631 76.2882C176.337 73.1309 178.599 68.7789 181.415 63.2322H180.519C179.495 63.2322 178.556 62.4642 177.703 60.9282C176.849 59.3069 176.423 57.8562 176.423 56.5762C176.423 55.2962 176.892 54.6562 177.831 54.6562H178.087C178.855 54.7416 179.623 54.8269 180.391 54.9122C181.159 54.9122 182.055 54.9122 183.079 54.9122H185.511C188.412 49.1096 191.313 43.2642 194.215 37.3762C197.116 31.4029 199.761 25.8136 202.151 20.6082C204.54 15.4029 206.417 11.0509 207.783 7.55222C208.124 6.78422 208.38 5.63223 208.551 4.09623C208.721 2.47489 209.02 1.40822 209.447 0.896225C209.873 0.384226 210.684 0.128227 211.879 0.128227C213.329 0.128227 214.823 0.512227 216.359 1.28023C217.895 1.9629 218.833 2.7309 219.175 3.58423C219.175 3.66956 219.175 3.75489 219.175 3.84023C219.26 3.92556 219.303 4.01089 219.303 4.09623C219.303 4.43756 219.217 4.86422 219.047 5.37623C218.961 5.80289 218.919 6.22956 218.919 6.65623C218.919 7.08289 218.961 7.38156 219.047 7.55222C221.521 14.1229 224.38 21.3336 227.623 29.1842C230.951 36.9496 234.407 44.8002 237.991 52.7362C241.575 60.6722 245.031 68.1389 248.359 75.1362C249.041 76.5016 250.108 78.4642 251.559 81.0242C253.009 83.5842 254.417 85.8456 255.783 87.8082C255.953 88.0642 256.081 88.3202 256.167 88.5762C256.252 88.7469 256.295 88.9176 256.295 89.0882C256.295 90.1122 255.527 90.8802 253.991 91.3922C252.455 91.9896 250.961 92.2882 249.511 92.2882C248.572 92.2882 247.719 92.1602 246.951 91.9042C246.183 91.6482 245.713 91.2642 245.543 90.7522C245.031 89.2162 244.305 87.2109 243.367 84.7362C242.428 82.1762 241.617 80.1282 240.935 78.5922C239.655 75.8616 238.332 73.0029 236.967 70.0162C235.601 66.9442 234.193 63.7869 232.743 60.5442L191.399 62.3362ZM229.543 53.2482C226.385 45.9096 223.356 38.7416 220.455 31.7442C217.553 24.7469 215.207 18.9016 213.415 14.2082C211.964 17.4509 210.215 21.2909 208.167 25.7282C206.204 30.1656 204.071 34.8589 201.767 39.8082C199.463 44.7576 197.116 49.7069 194.727 54.6562L229.543 53.2482ZM269.79 10.2402C273.032 21.2482 275.976 32.2989 278.622 43.3922C281.267 54.4856 283.87 66.1336 286.43 78.3362C289.416 65.9629 292.531 54.2722 295.774 43.2642C299.016 32.2562 301.96 22.1442 304.606 12.9282C305.032 11.6482 305.374 10.4109 305.63 9.21622C305.886 7.93623 306.056 6.65623 306.142 5.37623C306.142 4.43756 306.611 3.79756 307.55 3.45622C308.574 3.02956 309.683 2.81622 310.878 2.81622C312.414 2.81622 313.907 3.07222 315.358 3.58423C316.894 4.09623 317.704 4.82156 317.79 5.76022C317.96 6.86956 318.131 7.72289 318.302 8.32023C318.472 8.83223 318.643 9.47223 318.814 10.2402C321.032 17.6642 323.166 25.3869 325.214 33.4082C327.347 41.3442 329.352 49.1949 331.23 56.9602C333.107 64.6402 334.771 71.8082 336.222 78.4642C339.635 66.0056 342.792 54.6136 345.694 44.2882C348.68 33.9629 351.496 24.4482 354.142 15.7442C354.824 13.6109 355.507 11.3069 356.19 8.83223C356.872 6.27223 357.512 3.79756 358.11 1.40823C358.366 0.554893 359.134 0.128227 360.414 0.128227C361.438 0.128227 362.547 0.384226 363.742 0.896225C364.936 1.32289 365.96 1.92022 366.814 2.68822C367.667 3.37089 368.094 4.13889 368.094 4.99223C368.094 5.24823 368.051 5.46156 367.966 5.63223C367.027 7.85089 365.918 10.7096 364.638 14.2082C363.358 17.6216 361.779 22.1442 359.902 27.7762C358.024 33.4082 355.763 40.5762 353.118 49.2802C350.472 57.8989 347.315 68.4802 343.646 81.0242C343.304 82.3896 342.963 83.8829 342.622 85.5042C342.28 87.0402 341.896 88.6189 341.47 90.2402C340.958 92.3736 339.678 93.4402 337.63 93.4402C336.179 93.4402 334.643 92.7576 333.022 91.3922C331.4 90.0269 330.248 87.9789 329.566 85.2482C327.774 77.5682 325.896 69.7602 323.934 61.8242C322.056 53.8882 320.136 46.0802 318.174 38.4002C316.211 30.7202 314.291 23.5096 312.414 16.7682C310.451 22.9976 308.403 29.7816 306.27 37.1202C304.222 44.4589 302.131 51.9256 299.998 59.5202C297.95 67.0296 295.944 74.2402 293.982 81.1522C293.64 82.4322 293.299 83.8402 292.958 85.3762C292.616 86.8269 292.147 88.4909 291.55 90.3682C290.867 92.3309 289.63 93.3122 287.838 93.3122C286.472 93.3122 285.022 92.6296 283.486 91.2642C281.95 89.8989 280.84 87.8936 280.158 85.2482C278.707 79.2749 277.128 73.0029 275.422 66.4322C273.8 59.8616 272.136 53.3336 270.43 46.8482C268.723 40.3629 267.059 34.2616 265.438 28.5442C263.816 22.8269 262.323 17.7922 260.958 13.4402C259.592 9.08822 258.44 5.80289 257.502 3.58423C257.416 3.41356 257.374 3.20023 257.374 2.94423C257.374 2.26156 257.8 1.74956 258.654 1.40823C259.592 1.06689 260.659 0.896225 261.854 0.896225C263.304 0.896225 264.627 1.10956 265.822 1.53622C267.102 1.96289 267.827 2.60289 267.998 3.45622L269.79 10.2402Z" fill="#F3832D"/>
</svg>
