<svg width="772" height="104" viewBox="0 0 772 104" fill="none" xmlns="http://www.w3.org/2000/svg">
<g filter="url(#filter0_d_2258_3900)">
<path d="M75.7597 90.4799C75.9331 88.6599 76.0631 86.8399 76.1497 85.0199C76.3231 83.1999 76.4097 80.2966 76.4097 76.3099C74.4164 80.4699 71.6864 83.9366 68.2197 86.7099C64.7531 89.3966 60.9831 91.4333 56.9097 92.8199C52.8364 94.2066 48.8497 94.8999 44.9497 94.8999C37.1497 94.8999 30.1297 93.5999 23.8897 90.9999C17.7364 88.3133 12.8831 83.9799 9.32973 77.9999C5.77639 72.0199 3.99973 64.1333 3.99973 54.3399C3.99973 47.1466 5.12639 40.2999 7.37973 33.7999C9.63306 27.2999 12.7964 21.5366 16.8697 16.5099C21.0297 11.3966 25.8831 7.3666 31.4297 4.41994C37.0631 1.47327 43.1731 -6.62804e-05 49.7597 -6.62804e-05C57.3864 -6.62804e-05 63.4964 0.9966 68.0897 2.98993C72.6831 4.98327 76.3231 7.66994 79.0097 11.0499C79.3564 11.3966 79.5297 11.9166 79.5297 12.6099C79.5297 13.9099 78.9664 15.2966 77.8397 16.7699C76.7131 18.1566 75.5864 18.8499 74.4597 18.8499C73.7664 18.8499 73.1597 18.4599 72.6397 17.6799C72.5531 17.5066 72.0764 16.9433 71.2097 15.9899C70.4297 14.9499 69.1731 13.8233 67.4397 12.6099C65.7064 11.3966 63.3664 10.3566 60.4197 9.48994C57.5597 8.5366 54.0064 8.05994 49.7597 8.05994C44.5597 8.05994 39.7497 9.27327 35.3297 11.6999C30.9097 14.0399 27.0097 17.3333 23.6297 21.5799C20.3364 25.8266 17.7364 30.7666 15.8297 36.3999C14.0097 41.9466 13.0997 47.9266 13.0997 54.3399C13.0997 62.3133 14.3564 68.6833 16.8697 73.4499C19.4697 78.2166 23.1531 81.6399 27.9197 83.7199C32.6864 85.7133 38.3631 86.7099 44.9497 86.7099C50.5831 86.7099 55.8264 85.2799 60.6797 82.4199C65.5331 79.5599 69.4331 75.5733 72.3797 70.4599C75.4131 65.3466 76.9297 59.4099 76.9297 52.6499C76.9297 52.3899 76.7564 52.2599 76.4097 52.2599L61.5897 53.2999C60.1164 53.3866 58.4697 53.5599 56.6497 53.8199C54.8297 53.9933 53.2264 54.1666 51.8397 54.3399H51.5797C50.3664 54.3399 49.2397 53.5599 48.1997 51.9999C47.1597 50.3533 46.6397 48.8799 46.6397 47.5799C46.6397 46.3666 47.1597 45.7599 48.1997 45.7599H50.0197C51.4931 45.7599 53.0964 45.7599 54.8297 45.7599C56.5631 45.6733 57.9931 45.5866 59.1197 45.4999L75.2397 44.5899C75.9331 44.5033 76.6697 44.4166 77.4497 44.3299C78.2297 44.1566 79.0097 44.0699 79.7897 44.0699C80.3964 44.0699 81.2197 44.4599 82.2597 45.2399C83.2997 46.0199 84.2097 46.8866 84.9897 47.8399C85.8564 48.7933 86.2897 49.6166 86.2897 50.3099C86.2897 50.9166 86.0731 51.4366 85.6397 51.8699C85.2931 52.3033 85.1197 52.9966 85.1197 53.9499V80.0799C85.1197 80.7733 85.1197 81.8999 85.1197 83.4599C85.2064 85.0199 85.2497 86.5799 85.2497 88.1399C85.3364 89.6999 85.3797 90.9133 85.3797 91.7799C85.3797 92.3866 85.0764 92.8199 84.4697 93.0799C83.8631 93.3399 83.1264 93.4699 82.2597 93.4699C80.8731 93.4699 79.4431 93.2099 77.9697 92.6899C76.4964 92.0833 75.7597 91.3899 75.7597 90.6099V90.4799ZM118.394 63.4399H117.874C116.487 66.3866 115.1 69.2466 113.714 72.0199C112.327 74.7933 111.027 77.3933 109.814 79.8199C109.12 81.2066 108.254 83.1133 107.214 85.5399C106.26 87.9666 105.524 89.9166 105.004 91.3899C104.744 92.0833 104.007 92.6033 102.794 92.9499C101.667 93.3833 100.454 93.5999 99.1536 93.5999C97.9403 93.5999 96.8136 93.3833 95.7736 92.9499C94.8203 92.6033 94.3436 91.9966 94.3436 91.1299C94.3436 90.6099 94.517 90.1333 94.8636 89.6999C95.2103 89.1799 95.557 88.6166 95.9036 88.0099C96.2503 87.3166 96.8136 86.1899 97.5936 84.6299C98.4603 83.0699 99.717 80.7299 101.364 77.6099C103.097 74.4033 105.394 69.9833 108.254 64.3499H107.344C106.304 64.3499 105.35 63.5699 104.484 62.0099C103.617 60.3633 103.184 58.8899 103.184 57.5899C103.184 56.2899 103.66 55.6399 104.614 55.6399H104.874C105.654 55.7266 106.434 55.8133 107.214 55.8999C107.994 55.8999 108.904 55.8999 109.944 55.8999H112.414C115.36 50.0066 118.307 44.0699 121.254 38.0899C124.2 32.0233 126.887 26.3466 129.314 21.0599C131.74 15.7733 133.647 11.3533 135.034 7.79993C135.38 7.01993 135.64 5.84994 135.814 4.28994C135.987 2.64327 136.29 1.55993 136.724 1.03994C137.157 0.519937 137.98 0.259938 139.194 0.259938C140.667 0.259938 142.184 0.649938 143.744 1.42994C145.304 2.12327 146.257 2.90327 146.604 3.76994C146.604 3.8566 146.604 3.94327 146.604 4.02994C146.69 4.1166 146.734 4.20327 146.734 4.28994C146.734 4.6366 146.647 5.06994 146.474 5.58994C146.387 6.02327 146.344 6.45661 146.344 6.88994C146.344 7.32327 146.387 7.6266 146.474 7.79993C148.987 14.4733 151.89 21.7966 155.184 29.7699C158.564 37.6566 162.074 45.6299 165.714 53.6899C169.354 61.7499 172.864 69.3333 176.244 76.4399C176.937 77.8266 178.02 79.8199 179.494 82.4199C180.967 85.0199 182.397 87.3166 183.784 89.3099C183.957 89.5699 184.087 89.8299 184.174 90.0899C184.26 90.2633 184.304 90.4366 184.304 90.6099C184.304 91.6499 183.524 92.4299 181.964 92.9499C180.404 93.5566 178.887 93.8599 177.414 93.8599C176.46 93.8599 175.594 93.7299 174.814 93.4699C174.034 93.2099 173.557 92.8199 173.384 92.2999C172.864 90.7399 172.127 88.7033 171.174 86.1899C170.22 83.5899 169.397 81.5099 168.704 79.9499C167.404 77.1766 166.06 74.2733 164.674 71.2399C163.287 68.1199 161.857 64.9133 160.384 61.6199L118.394 63.4399ZM157.134 54.2099C153.927 46.7566 150.85 39.4766 147.904 32.3699C144.957 25.2633 142.574 19.3266 140.754 14.5599C139.28 17.8533 137.504 21.7533 135.424 26.2599C133.43 30.7666 131.264 35.5333 128.924 40.5599C126.584 45.5866 124.2 50.6133 121.774 55.6399L157.134 54.2099ZM279.259 11.0499C279.779 16.0766 280.386 21.7533 281.08 28.0799C281.859 34.3199 282.639 40.7333 283.419 47.3199C284.286 53.8199 285.066 59.9733 285.759 65.7799C286.539 71.5866 287.233 76.5266 287.839 80.5999C288.013 82.0733 288.359 83.8066 288.88 85.7999C289.399 87.7066 289.833 89.1799 290.179 90.2199C290.179 90.3066 290.179 90.3933 290.179 90.4799C290.266 90.4799 290.309 90.5666 290.309 90.7399C290.309 91.6066 289.616 92.2566 288.229 92.6899C286.843 93.2099 285.413 93.4699 283.939 93.4699C282.813 93.4699 281.773 93.2966 280.819 92.9499C279.866 92.6033 279.346 92.0399 279.259 91.2599C279.173 89.4399 279.086 87.8799 278.999 86.5799C278.913 85.1933 278.783 83.5466 278.609 81.6399C278.176 77.7399 277.656 73.0599 277.049 67.5999C276.443 62.0533 275.793 56.1599 275.1 49.9199C274.493 43.6799 273.843 37.4833 273.149 31.3299C272.543 25.1766 271.979 19.4566 271.459 14.1699C268.859 19.5433 266.216 25.0899 263.529 30.8099C260.929 36.4433 258.459 41.9033 256.119 47.1899C253.779 52.3899 251.699 57.1133 249.879 61.3599C248.059 65.6066 246.629 69.0733 245.589 71.7599C244.549 74.4466 244.029 76.0499 244.029 76.5699C243.943 77.6966 243.163 78.6066 241.689 79.2999C240.216 79.9933 238.743 80.3399 237.269 80.3399C236.316 80.3399 235.449 80.2099 234.669 79.9499C233.889 79.6033 233.413 79.0833 233.239 78.3899C232.806 77.0033 232.286 75.5299 231.679 73.9699C231.159 72.4099 230.769 71.3699 230.509 70.8499C229.209 67.8166 227.649 64.0899 225.829 59.6699C224.009 55.1633 222.059 50.3533 219.979 45.2399C217.899 40.0399 215.819 34.8833 213.739 29.7699C211.746 24.6566 209.926 19.8899 208.279 15.4699C207.673 22.5766 206.936 30.0733 206.069 37.9599C205.289 45.8466 204.466 53.5599 203.599 61.0999C202.733 68.6399 201.909 75.5299 201.129 81.7699C200.956 83.3299 200.826 84.8466 200.739 86.3199C200.653 87.7933 200.523 89.3966 200.349 91.1299C200.263 91.9099 199.569 92.5166 198.269 92.9499C197.056 93.3833 195.713 93.5999 194.239 93.5999C193.026 93.5999 191.943 93.4266 190.989 93.0799C190.123 92.7333 189.689 92.2566 189.689 91.6499V91.3899C190.383 89.1366 191.076 86.0166 191.769 82.0299C192.463 78.0433 193.156 73.5366 193.849 68.5099C194.543 63.4833 195.193 58.2833 195.799 52.9099C196.493 47.4499 197.143 42.2066 197.749 37.1799C198.356 32.0666 198.833 27.4733 199.179 23.3999C199.613 19.2399 199.959 15.9466 200.219 13.5199C200.479 11.0066 200.609 9.7066 200.609 9.61993C200.609 8.9266 200.566 8.36327 200.479 7.92994C200.479 7.40994 200.479 6.93327 200.479 6.49994C200.479 6.3266 200.479 6.10994 200.479 5.84994C200.479 5.58994 200.523 5.37327 200.609 5.19994C200.783 4.15993 201.693 3.24994 203.339 2.46994C204.986 1.68994 206.633 1.29994 208.279 1.29994C209.493 1.29994 210.359 1.51661 210.879 1.94994C211.399 2.38327 212.093 3.7266 212.959 5.97993C214.953 11.1799 217.076 16.6399 219.329 22.3599C221.583 28.0799 223.836 33.7566 226.089 39.3899C228.343 45.0233 230.509 50.3533 232.589 55.3799C234.669 60.3199 236.576 64.6966 238.309 68.5099C241.083 61.7499 244.029 54.6866 247.149 47.3199C250.356 39.9533 253.606 32.6299 256.899 25.3499C260.193 18.0699 263.313 11.3533 266.259 5.19994C266.866 3.9866 267.429 2.85994 267.949 1.81993C268.469 0.693271 269.466 0.12994 270.939 0.12994C271.893 0.12994 273.063 0.389939 274.449 0.909938C275.836 1.34327 277.093 1.9066 278.219 2.59994C279.346 3.29327 279.91 3.9866 279.91 4.67994C279.91 5.5466 279.779 6.41327 279.519 7.27994C279.346 8.05994 279.259 9.01327 279.259 10.1399V11.0499ZM370.32 92.9499C369.627 92.8633 368.11 92.7766 365.77 92.6899C363.517 92.6033 361.264 92.5599 359.01 92.5599H356.93L320.79 93.0799C319.404 93.0799 318.19 93.2099 317.15 93.4699C316.197 93.8166 315.07 93.9899 313.77 93.9899C312.557 93.9899 311.344 93.2533 310.13 91.7799C308.917 90.2199 308.31 88.9199 308.31 87.8799C308.31 87.2733 308.44 86.3633 308.7 85.1499C309.047 83.9366 309.22 82.8099 309.22 81.7699V47.9699C308.267 47.4499 307.444 46.4966 306.75 45.1099C306.057 43.7233 305.71 42.5533 305.71 41.5999C305.71 40.6466 306.057 40.1699 306.75 40.1699H307.01C307.357 40.2566 307.704 40.3433 308.05 40.4299C308.484 40.4299 308.874 40.4299 309.22 40.4299V14.1699C309.22 12.7833 309.22 11.4833 309.22 10.2699C309.22 8.96994 309.134 7.79994 308.96 6.75994C308.874 5.97994 308.787 5.37327 308.7 4.93994C308.7 4.41994 308.7 3.9866 308.7 3.63993C308.7 2.77327 308.917 2.25327 309.35 2.07994C309.784 1.9066 310.174 1.81993 310.52 1.81993C311.734 1.81993 313.164 2.07994 314.81 2.59994C316.457 3.11994 317.324 3.42327 317.41 3.50994L352.64 1.16993C354.634 0.996603 356.714 0.779937 358.88 0.519935C361.134 0.259938 362.65 0.12994 363.43 0.12994C364.644 0.12994 365.684 0.90994 366.55 2.46994C367.417 3.94327 367.85 5.2866 367.85 6.49994C367.85 7.97327 367.287 8.70994 366.16 8.70994H360.7C359.4 8.70994 358.057 8.70994 356.67 8.70994C355.284 8.70994 353.984 8.75327 352.77 8.83994L318.06 11.1799V40.2999L345.49 38.6099C347.484 38.4366 349.564 38.2199 351.73 37.9599C353.984 37.6999 355.5 37.5699 356.28 37.5699C357.494 37.5699 358.534 38.3499 359.4 39.9099C360.267 41.3833 360.7 42.7699 360.7 44.0699C360.7 45.5433 360.137 46.2799 359.01 46.2799H353.55C352.25 46.2799 350.907 46.2799 349.52 46.2799C348.134 46.2799 346.834 46.3233 345.62 46.4099L318.06 47.9699V85.0199L356.8 84.3699C358.707 84.3699 360.657 84.3266 362.65 84.2399C364.644 84.1533 366.29 84.0666 367.59 83.9799H367.72C368.847 83.9799 369.8 84.8033 370.58 86.4499C371.447 88.0099 371.88 89.4833 371.88 90.8699C371.88 92.2566 371.404 92.9499 370.45 92.9499H370.32ZM452.78 8.70994C455.813 6.02327 459.237 3.89994 463.05 2.33993C466.863 0.779934 471.327 -6.62804e-05 476.44 -6.62804e-05C484.24 -6.62804e-05 490.957 1.99327 496.59 5.97993C502.223 9.87994 506.557 15.2533 509.59 22.0999C512.623 28.9466 514.14 36.7466 514.14 45.4999C514.14 52.1733 513.273 58.4999 511.54 64.4799C509.893 70.4599 507.293 75.7466 503.74 80.3399C500.273 84.9333 495.853 88.5299 490.48 91.1299C485.107 93.7299 478.737 95.0299 471.37 95.0299C462.097 95.0299 454.427 93.0366 448.36 89.0499C442.38 84.9766 437.917 79.4733 434.97 72.5399C432.11 65.6066 430.68 57.7199 430.68 48.8799C430.68 43.0733 431.373 37.6566 432.76 32.6299C434.233 27.5166 436.01 23.0533 438.09 19.2399C440.17 15.4266 442.25 12.4799 444.33 10.3999C446.41 8.23327 448.1 7.14993 449.4 7.14993C450.093 7.14993 450.743 7.32327 451.35 7.66994C451.957 7.92994 452.433 8.2766 452.78 8.70994ZM470.33 86.7099C476.743 86.7099 482.16 85.5833 486.58 83.3299C491 80.9899 494.553 77.8266 497.24 73.8399C499.927 69.8533 501.877 65.3466 503.09 60.3199C504.39 55.2066 505.04 49.9199 505.04 44.4599C505.04 40.0399 504.433 35.6633 503.22 31.3299C502.007 26.9099 500.143 22.9666 497.63 19.4999C495.203 15.9466 492.127 13.1299 488.4 11.0499C484.76 8.88327 480.513 7.79993 475.66 7.79993C471.933 7.79993 467.947 8.6666 463.7 10.3999C459.54 12.1333 455.64 14.7333 452 18.1999C448.36 21.5799 445.37 25.8266 443.03 30.9399C440.777 36.0533 439.65 41.9466 439.65 48.6199C439.65 55.5533 440.733 61.9233 442.9 67.7299C445.067 73.4499 448.403 78.0433 452.91 81.5099C457.417 84.9766 463.223 86.7099 470.33 86.7099ZM560.175 79.8199C563.295 71.4999 566.415 63.2233 569.535 54.9899C572.655 46.6699 575.645 38.8266 578.505 31.4599C581.452 24.0933 584.052 17.6366 586.305 12.0899C586.825 10.8766 587.432 9.27327 588.125 7.27994C588.905 5.19994 589.512 3.3366 589.945 1.68994C590.205 0.736604 591.029 0.259938 592.415 0.259938C593.889 0.259938 595.492 0.779937 597.225 1.81993C598.959 2.85994 599.825 3.9866 599.825 5.19994C599.825 5.63327 599.739 5.97994 599.565 6.23994C598.959 7.27994 598.179 8.6666 597.225 10.3999C596.359 12.0466 595.665 13.4766 595.145 14.6899C589.772 27.4299 585.309 38.1333 581.755 46.7999C578.202 55.4666 575.342 62.5733 573.175 68.1199C571.095 73.5799 569.492 77.9133 568.365 81.1199C567.325 84.2399 566.589 86.5799 566.155 88.1399C565.809 89.6999 565.549 90.9566 565.375 91.9099C565.289 92.8633 564.899 93.5999 564.205 94.1199C563.599 94.6399 562.862 94.8999 561.995 94.8999C560.609 94.8999 559.135 94.2066 557.575 92.8199C556.015 91.5199 554.759 89.4833 553.805 86.7099C552.159 81.7699 550.209 76.1799 547.955 69.9399C545.702 63.6133 543.319 57.1566 540.805 50.5699C538.379 43.8966 535.995 37.4833 533.655 31.3299C531.315 25.1766 529.149 19.7166 527.155 14.9499C525.162 10.0966 523.515 6.36994 522.215 3.76994C522.129 3.5966 522.085 3.42327 522.085 3.24994C522.085 2.5566 522.562 2.0366 523.515 1.68994C524.555 1.34327 525.682 1.16993 526.895 1.16993C528.282 1.16993 529.625 1.3866 530.925 1.81993C532.225 2.25327 532.962 2.90327 533.135 3.76994C533.395 4.72327 533.742 5.84994 534.175 7.14993C534.609 8.36327 534.999 9.48994 535.345 10.5299C538.032 17.2033 540.762 24.4399 543.535 32.2399C546.395 40.0399 549.212 48.0133 551.985 56.1599C554.845 64.2199 557.575 72.1066 560.175 79.8199ZM676.151 92.9499C675.457 92.8633 673.941 92.7766 671.601 92.6899C669.347 92.6033 667.094 92.5599 664.841 92.5599H662.761L626.621 93.0799C625.234 93.0799 624.021 93.2099 622.981 93.4699C622.027 93.8166 620.901 93.9899 619.601 93.9899C618.387 93.9899 617.174 93.2533 615.961 91.7799C614.747 90.2199 614.141 88.9199 614.141 87.8799C614.141 87.2733 614.271 86.3633 614.531 85.1499C614.877 83.9366 615.051 82.8099 615.051 81.7699V47.9699C614.097 47.4499 613.274 46.4966 612.581 45.1099C611.887 43.7233 611.541 42.5533 611.541 41.5999C611.541 40.6466 611.887 40.1699 612.581 40.1699H612.841C613.187 40.2566 613.534 40.3433 613.881 40.4299C614.314 40.4299 614.704 40.4299 615.051 40.4299V14.1699C615.051 12.7833 615.051 11.4833 615.051 10.2699C615.051 8.96994 614.964 7.79994 614.791 6.75994C614.704 5.97994 614.617 5.37327 614.531 4.93994C614.531 4.41994 614.531 3.9866 614.531 3.63993C614.531 2.77327 614.747 2.25327 615.181 2.07994C615.614 1.9066 616.004 1.81993 616.351 1.81993C617.564 1.81993 618.994 2.07994 620.641 2.59994C622.287 3.11994 623.154 3.42327 623.241 3.50994L658.471 1.16993C660.464 0.996603 662.544 0.779937 664.711 0.519935C666.964 0.259938 668.481 0.12994 669.261 0.12994C670.474 0.12994 671.514 0.90994 672.381 2.46994C673.247 3.94327 673.681 5.2866 673.681 6.49994C673.681 7.97327 673.117 8.70994 671.991 8.70994H666.531C665.231 8.70994 663.887 8.70994 662.501 8.70994C661.114 8.70994 659.814 8.75327 658.601 8.83994L623.891 11.1799V40.2999L651.321 38.6099C653.314 38.4366 655.394 38.2199 657.561 37.9599C659.814 37.6999 661.331 37.5699 662.111 37.5699C663.324 37.5699 664.364 38.3499 665.231 39.9099C666.097 41.3833 666.531 42.7699 666.531 44.0699C666.531 45.5433 665.967 46.2799 664.841 46.2799H659.381C658.081 46.2799 656.737 46.2799 655.351 46.2799C653.964 46.2799 652.664 46.3233 651.451 46.4099L623.891 47.9699V85.0199L662.631 84.3699C664.537 84.3699 666.487 84.3266 668.481 84.2399C670.474 84.1533 672.121 84.0666 673.421 83.9799H673.551C674.677 83.9799 675.631 84.8033 676.411 86.4499C677.277 88.0099 677.711 89.4833 677.711 90.8699C677.711 92.2566 677.234 92.9499 676.281 92.9499H676.151ZM697.951 12.6099H697.821C696.954 12.6099 696.044 12.2199 695.091 11.4399C694.224 10.5733 693.444 9.61994 692.751 8.57994C692.144 7.45327 691.841 6.54327 691.841 5.84994C691.841 5.06994 692.188 4.6366 692.881 4.54994C694.614 4.20327 696.608 3.89994 698.861 3.63993C701.114 3.37994 704.018 2.85994 707.571 2.07994C709.478 1.64661 712.078 1.29994 715.371 1.03994C718.751 0.693268 722.608 0.519935 726.941 0.519935C734.048 0.519935 739.724 1.60327 743.971 3.76994C748.218 5.9366 751.294 8.70994 753.201 12.0899C755.194 15.3833 756.191 18.8066 756.191 22.3599C756.191 27.0399 754.934 31.1133 752.421 34.5799C749.994 38.0466 746.831 40.8633 742.931 43.0299C739.118 45.1966 735.131 46.6699 730.971 47.4499C729.844 47.7099 728.544 47.9266 727.071 48.0999C725.598 48.1866 724.081 48.3166 722.521 48.4899C722.088 48.4899 721.611 48.5333 721.091 48.6199C720.571 48.6199 720.051 48.6199 719.531 48.6199C722.218 51.3066 725.381 54.7299 729.021 58.8899C732.748 62.9633 736.604 67.1233 740.591 71.3699C744.578 75.6166 748.391 79.3433 752.031 82.5499C753.504 83.9366 755.194 85.3233 757.101 86.7099C759.008 88.0966 760.568 89.0066 761.781 89.4399C763.254 90.0466 764.554 90.6966 765.681 91.3899C766.808 92.0833 767.371 92.6899 767.371 93.2099C767.371 93.9899 766.114 94.3799 763.601 94.3799C761.174 94.3799 758.618 94.0766 755.931 93.4699C753.244 92.8633 750.558 91.4766 747.871 89.3099C744.924 86.9699 741.848 84.1966 738.641 80.9899C735.521 77.6966 732.401 74.3166 729.281 70.8499C726.161 67.2966 723.214 63.9599 720.441 60.8399C717.668 57.7199 715.241 55.1633 713.161 53.1699C712.294 52.3899 711.211 51.6099 709.911 50.8299C708.698 50.0499 707.658 49.4866 706.791 49.1399V77.7399C706.791 80.6866 706.834 83.5899 706.921 86.4499C707.094 89.2233 707.181 91.3466 707.181 92.8199C707.181 93.2533 706.921 93.5566 706.401 93.7299C705.881 93.9899 705.274 94.1199 704.581 94.1199C703.194 94.1199 701.678 93.7733 700.031 93.0799C698.471 92.4733 697.691 91.6066 697.691 90.4799C697.691 89.4399 697.734 87.6633 697.821 85.1499C697.908 82.6366 697.951 80.1233 697.951 77.6099V12.6099ZM712.901 42.2499C715.414 42.2499 717.841 42.1199 720.181 41.8599C722.608 41.5999 724.904 41.2966 727.071 40.9499C730.624 40.3433 733.918 39.1299 736.951 37.3099C739.984 35.4033 742.411 33.1933 744.231 30.6799C746.138 28.0799 747.091 25.4799 747.091 22.8799C747.091 18.5466 745.271 15.0366 741.631 12.3499C737.991 9.66327 733.008 8.31994 726.681 8.31994C723.214 8.31994 719.704 8.49327 716.151 8.83994C712.684 9.1866 709.564 9.8366 706.791 10.7899V44.5899C707.311 43.8966 707.831 43.3333 708.351 42.8999C708.958 42.4666 709.608 42.2499 710.301 42.2499H712.901Z" fill="white"/>
</g>
<defs>
<filter id="filter0_d_2258_3900" x="0" y="0" width="771.371" height="103.03" filterUnits="userSpaceOnUse" color-interpolation-filters="sRGB">
<feFlood flood-opacity="0" result="BackgroundImageFix"/>
<feColorMatrix in="SourceAlpha" type="matrix" values="0 0 0 0 0 0 0 0 0 0 0 0 0 0 0 0 0 0 127 0" result="hardAlpha"/>
<feOffset dy="4"/>
<feGaussianBlur stdDeviation="2"/>
<feComposite in2="hardAlpha" operator="out"/>
<feColorMatrix type="matrix" values="0 0 0 0 0 0 0 0 0 0 0 0 0 0 0 0 0 0 0.25 0"/>
<feBlend mode="normal" in2="BackgroundImageFix" result="effect1_dropShadow_2258_3900"/>
<feBlend mode="normal" in="SourceGraphic" in2="effect1_dropShadow_2258_3900" result="shape"/>
</filter>
</defs>
</svg>
