<svg width="29" height="24" viewBox="0 0 29 24" fill="none" xmlns="http://www.w3.org/2000/svg">
<path d="M2.97436 24C2.15641 24 1.4562 23.7063 0.873718 23.1188C0.291239 22.5312 0 21.825 0 21V3C0 2.175 0.291239 1.46875 0.873718 0.88125C1.4562 0.29375 2.15641 0 2.97436 0H19.3333C19.8043 0 20.2504 0.10625 20.6718 0.31875C21.0932 0.53125 21.4402 0.825 21.7128 1.2L28.4051 10.2C28.8017 10.725 29 11.325 29 12C29 12.675 28.8017 13.275 28.4051 13.8L21.7128 22.8C21.4402 23.175 21.0932 23.4688 20.6718 23.6813C20.2504 23.8938 19.8043 24 19.3333 24H2.97436Z" fill="#2BB1FF"/>
</svg>
